<?xml version="1.0" standalone="no"?>
<!DOCTYPE svg PUBLIC "-//W3C//DTD SVG 20010904//EN"
 "http://www.w3.org/TR/2001/REC-SVG-20010904/DTD/svg10.dtd">
<svg version="1.0" xmlns="http://www.w3.org/2000/svg"
 width="500.000000pt" height="500.000000pt" viewBox="0 0 500.000000 500.000000"
 preserveAspectRatio="xMidYMid meet">

<g transform="translate(0.000000,500.000000) scale(0.100000,-0.100000)"
fill="#000000" stroke="none">
<path d="M3973 3125 c-232 -63 -393 -258 -405 -490 l-3 -60 36 -3 36 -3 7 70
c9 104 12 106 54 62 21 -21 58 -50 83 -65 38 -21 51 -25 72 -17 15 6 27 19 29
33 2 17 11 24 31 26 32 4 53 32 63 86 4 23 21 55 42 78 l35 39 -18 39 c-10 21
-15 48 -12 59 3 12 -3 31 -14 45 -25 32 -13 36 94 35 92 -1 133 -10 129 -28
-6 -28 29 -80 72 -109 l46 -31 50 50 c27 27 50 54 50 59 0 13 -57 54 -117 84
-107 53 -252 70 -360 41z"/>
<path d="M4462 3092 c-25 -8 -10 -31 50 -78 34 -27 66 -52 71 -55 9 -6 -22
-38 -101 -104 -31 -26 -35 -27 -76 -15 -31 8 -50 9 -62 2 -16 -9 -12 -13 29
-33 44 -22 47 -25 47 -63 0 -23 4 -47 9 -54 14 -22 41 14 41 54 0 34 2 36 83
73 45 21 84 37 85 35 2 -1 14 -47 26 -101 18 -83 24 -98 41 -98 17 0 23 19 50
145 29 136 33 147 68 182 41 40 48 73 16 83 -25 8 -39 -2 -15 -11 20 -8 21
-47 1 -64 -12 -10 -15 -10 -15 3 0 9 -7 23 -16 31 -8 9 -12 21 -8 27 3 6 -6 4
-21 -3 -25 -13 -40 -12 -159 17 -73 17 -138 29 -144 27z"/>
<path d="M753 3043 l-53 -4 0 -460 0 -459 50 0 c39 0 51 4 60 20 7 14 10 85 8
206 l-3 184 26 0 c25 0 32 -13 110 -185 45 -102 91 -193 101 -202 17 -15 138
-33 138 -21 0 3 -45 97 -99 208 l-99 204 32 15 c58 29 71 75 71 248 0 169 -6
187 -76 228 -34 20 -147 28 -266 18z m182 -117 c29 -13 34 -20 40 -60 4 -26 5
-75 3 -111 -5 -88 -22 -105 -102 -105 l-61 0 0 145 0 145 43 0 c23 0 58 -6 77
-14z"/>
<path d="M1633 3043 l-63 -4 0 -459 0 -460 50 0 c38 0 52 4 60 19 6 12 10 96
10 204 l0 184 99 7 c111 8 170 31 205 79 18 24 22 47 25 154 4 150 -8 204 -53
238 -57 43 -119 50 -333 38z m229 -118 c27 -11 41 -73 36 -158 -5 -103 -13
-111 -126 -115 l-87 -4 0 147 0 148 80 -6 c44 -3 88 -8 97 -12z"/>
<path d="M2249 3040 c-78 -23 -104 -68 -104 -185 0 -107 21 -142 171 -281 122
-114 144 -147 144 -214 0 -112 -45 -137 -216 -123 l-104 8 0 -52 c0 -41 4 -53
18 -57 56 -15 174 -28 222 -23 140 15 194 77 207 236 10 130 -17 178 -175 314
-55 48 -109 102 -121 120 -26 42 -27 97 -3 127 20 25 67 30 164 16 l58 -9 15
36 c24 58 22 61 -69 80 -88 18 -163 21 -207 7z"/>
<path d="M3082 3024 c-103 -51 -127 -147 -119 -489 5 -254 16 -306 76 -366 58
-58 114 -68 273 -48 l88 12 0 240 0 240 -47 -7 c-26 -3 -52 -11 -58 -17 -6 -6
-11 -78 -12 -182 l-1 -172 -48 -7 c-71 -10 -107 8 -130 68 -17 43 -19 79 -19
294 0 229 1 248 21 285 30 58 53 66 147 52 87 -12 100 -7 116 50 l9 32 -90 20
c-116 27 -143 26 -206 -5z"/>
<path d="M187 3033 c-4 -3 -7 -28 -7 -55 l0 -48 75 0 75 0 0 -405 0 -405 49 0
c29 0 53 6 60 14 9 10 11 120 9 405 l-3 391 73 0 72 0 0 55 0 55 -198 0 c-109
0 -202 -3 -205 -7z"/>
<path d="M1295 3028 c-3 -8 -4 -211 -3 -451 3 -488 -2 -457 76 -457 l42 0 0
449 c0 248 -3 452 -7 454 -5 3 -29 8 -55 12 -37 6 -49 4 -53 -7z"/>
<path d="M4235 2763 c-72 -53 -247 -137 -345 -167 -181 -54 -388 -73 -410 -38
-8 13 -10 9 -8 -22 3 -34 8 -42 41 -59 48 -25 170 -39 267 -31 149 11 273 48
443 131 l157 77 0 53 c0 47 -3 54 -27 66 -56 29 -66 28 -118 -10z"/>
<path d="M4540 2619 c-47 -27 -124 -66 -172 -86 -83 -35 -87 -38 -74 -58 7
-11 26 -22 42 -25 39 -7 54 -41 54 -127 l0 -73 -42 -30 c-58 -42 -155 -70
-244 -70 -84 0 -91 8 -49 58 30 36 30 37 5 69 -25 32 -20 51 27 116 20 26 34
50 31 52 -2 2 -42 -2 -88 -10 -47 -7 -116 -17 -153 -20 -68 -7 -69 -7 -62 -33
10 -43 31 -68 77 -94 33 -18 42 -29 41 -46 -2 -13 5 -34 14 -49 17 -25 17 -26
-7 -18 -80 23 -202 127 -238 202 -15 31 -36 43 -79 43 -28 0 -28 0 1 -58 107
-211 362 -332 589 -278 245 58 427 287 415 524 l-3 60 -85 -49z"/>
<path d="M503 1834 c-3 -8 -1 -20 4 -25 5 -5 774 -8 1999 -7 1981 3 1989 3
1989 23 0 20 -8 20 -1993 23 -1803 2 -1993 1 -1999 -14z"/>
</g>
</svg>
